# xmcd
#
# Track frame offsets:
#	150
#	2763
#	13504
#	33422
#	49519
#	65125
#	86075
#	104212
#	120063
#	130977
#	145848
#	161272
#	175085
#	193627
#	209370
#	220512
#	235383
#	249234
#	265179
#	282190
#	296450
#	313119
#	327041
#	344480
#
# Disc length: 4798
#
# Revision: 1
# Processed by: cddbd v1.5.1PL0 Copyright (c) Steve Scherf et al.
# Submitted via: audiograbber 1.82.02
# Normalized: r0:DSETVAR1
#
DISCID=5812bc18
DTITLE=Various Artist - DJ 4our 5ive - Point Of No Return (R&B Episode 10)
DYEAR=2004
DGENRE=R&B
TTITLE0=4our 5ive - Intro
TTITLE1=Tiki - Gucci Bag
TTITLE2=Cheri Dennis Feat. Jay-Z - Matrix (4our 5ive Remix)
TTITLE3=Ashanti - Break Up 2 Make Up
TTITLE4=Olivia - Awww
TTITLE5=Cassidy Feat. R. Kelly and Trina - Hotel (Remix)
TTITLE6=Jaheim Feat. Jadakiss and Left Gunz - Diamond In Da Ruff (Remix)
TTITLE7=Young Gunz Feat. Rell - No Better Love
TTITLE8=Akon - Look At Me Now
TTITLE9=Kelis - Glow
TTITLE10=Javier - Beautiful
TTITLE11=Tamia - More
TTITLE12=New Edition - Sexy Lady
TTITLE13=Marques Houston Feat. Jermaine Dupri - Pop That Booty
TTITLE14=Sha'Liek Feat. Lloyd Banks - Full Time Bachelor
TTITLE15=Musiq - Youloveme
TTITLE16=Musiq - Forthenight (Remix)
TTITLE17=Carl Thomas - Anything
TTITLE18=Carl Thomas - My First Love
TTITLE19=Tony Sunshine Feat. Fabolous - In Da Zone
TTITLE20=Joe Feat. G- Unit - Ride Wit U
TTITLE21=Kelis Feat. Andre 3000 - Millionaire
TTITLE22=Kelis Feat. Pharell and Pushap - Milkshake (Remix)
TTITLE23=Nicole Wray - Destination
EXTD=
EXTT0=
EXTT1=
EXTT2=
EXTT3=
EXTT4=
EXTT5=
EXTT6=
EXTT7=
EXTT8=
EXTT9=
EXTT10=
EXTT11=
EXTT12=
EXTT13=
EXTT14=
EXTT15=
EXTT16=
EXTT17=
EXTT18=
EXTT19=
EXTT20=
EXTT21=
EXTT22=
EXTT23=
PLAYORDER=
